<svg width="25" height="25" viewBox="0 0 25 25" fill="none" xmlns="http://www.w3.org/2000/svg">
<g clip-path="url(#clip0)">
<path d="M9.69287 3.6084C10.444 3.6084 11.1782 3.83112 11.8027 4.24841C12.4272 4.6657 12.914 5.2588 13.2014 5.95272C13.4888 6.64665 13.564 7.41022 13.4175 8.14688C13.271 8.88355 12.9093 9.56021 12.3782 10.0913C11.8471 10.6224 11.1704 10.9841 10.4338 11.1306C9.69709 11.2772 8.93351 11.202 8.23959 10.9145C7.54567 10.6271 6.95256 10.1404 6.53528 9.51584C6.11799 8.89133 5.89527 8.1571 5.89527 7.40601C5.89527 6.39882 6.29537 5.43288 7.00756 4.72069C7.71975 4.0085 8.68569 3.6084 9.69287 3.6084ZM9.69287 2.08936C8.64134 2.08936 7.61342 2.40117 6.7391 2.98537C5.86478 3.56957 5.18333 4.39992 4.78093 5.37141C4.37852 6.3429 4.27324 7.4119 4.47838 8.44323C4.68353 9.47456 5.18989 10.4219 5.93343 11.1654C6.67698 11.909 7.62432 12.4154 8.65565 12.6205C9.68698 12.8256 10.756 12.7204 11.7275 12.318C12.699 11.9155 13.5293 11.2341 14.1135 10.3598C14.6977 9.48546 15.0095 8.45754 15.0095 7.40601C15.0095 5.99594 14.4494 4.64363 13.4523 3.64657C12.4552 2.6495 11.1029 2.08936 9.69287 2.08936Z" fill="white"/>
<path d="M17.2866 23.356H15.7676V19.5583C15.7676 18.5512 15.3675 17.5852 14.6553 16.873C13.9431 16.1608 12.9772 15.7607 11.97 15.7607H7.41284C6.40565 15.7607 5.43972 16.1608 4.72753 16.873C4.01534 17.5852 3.61523 18.5512 3.61523 19.5583V23.356H2.09619V19.5583C2.09619 18.1483 2.65634 16.796 3.6534 15.7989C4.65047 14.8018 6.00278 14.2417 7.41284 14.2417H11.97C13.38 14.2417 14.7323 14.8018 15.7294 15.7989C16.7265 16.796 17.2866 18.1483 17.2866 19.5583V23.356Z" fill="white"/>
<path d="M17.2871 3.6084H24.8823V5.12744H17.2871V3.6084Z" fill="white"/>
<path d="M17.2871 7.40625H24.8823V8.92529H17.2871V7.40625Z" fill="white"/>
<path d="M17.2871 11.2036H22.6038V12.7227H17.2871V11.2036Z" fill="white"/>
</g>
<defs>
<clipPath id="clip0">
<rect width="24.3047" height="24.3047" fill="white" transform="translate(0.578125 0.570312)"/>
</clipPath>
</defs>
</svg>
