<svg width="17" height="19" viewBox="0 0 17 19" fill="none" xmlns="http://www.w3.org/2000/svg">
<path d="M4.00907 16.5026H13.4544L13.9756 5.47656H3.48792L4.00907 16.5026Z" fill="black" fill-opacity="0.15"/>
<path d="M16.3118 3.92529H13.5553V2.20247C13.5553 1.44228 12.9373 0.824219 12.1771 0.824219H5.28581C4.52561 0.824219 3.90755 1.44228 3.90755 2.20247V3.92529H1.15104C0.769868 3.92529 0.461914 4.23325 0.461914 4.61442V5.30355C0.461914 5.3983 0.539441 5.47583 0.634196 5.47583H1.93492L2.46684 16.7388C2.5013 17.4731 3.10859 18.0524 3.84295 18.0524H13.6199C14.3565 18.0524 14.9616 17.4753 14.996 16.7388L15.528 5.47583H16.8287C16.9235 5.47583 17.001 5.3983 17.001 5.30355V4.61442C17.001 4.23325 16.693 3.92529 16.3118 3.92529ZM5.45809 2.37476H12.0048V3.92529H5.45809V2.37476ZM13.4541 16.5019H4.00877L3.48762 5.47583H13.9753L13.4541 16.5019Z" fill="#6B6565"/>
</svg>
