<svg width="25" height="25" viewBox="0 0 25 25" fill="none" xmlns="http://www.w3.org/2000/svg">
<path d="M24.4055 11.5939L2.40545 0.593893C2.23302 0.50766 2.03934 0.473108 1.84773 0.494398C1.65612 0.515688 1.47475 0.591913 1.32545 0.713893C1.18288 0.833386 1.07646 0.99028 1.01816 1.16694C0.959863 1.34359 0.951999 1.53301 0.995451 1.71389L3.64545 11.4839H14.9555V13.4839H3.64545L0.955451 23.2239C0.914677 23.3749 0.909918 23.5335 0.941555 23.6867C0.973192 23.8399 1.04034 23.9836 1.13761 24.1061C1.23488 24.2287 1.35954 24.3267 1.50158 24.3923C1.64363 24.4579 1.79908 24.4893 1.95545 24.4839C2.11199 24.483 2.26613 24.4453 2.40545 24.3739L24.4055 13.3739C24.5693 13.29 24.7067 13.1625 24.8027 13.0054C24.8987 12.8484 24.9495 12.6679 24.9495 12.4839C24.9495 12.2998 24.8987 12.1194 24.8027 11.9623C24.7067 11.8053 24.5693 11.6778 24.4055 11.5939Z" fill="white"/>
</svg>
